<svg width="18" height="18" viewBox="0 0 18 18" fill="none" xmlns="http://www.w3.org/2000/svg">
<path d="M9.00008 0.700195C4.41675 0.700195 0.666748 4.44186 0.666748 9.0502C0.666748 13.2169 3.71675 16.6752 7.70008 17.3002V11.4669H5.58342V9.0502H7.70008V7.20853C7.70008 5.11686 8.94175 3.96686 10.8501 3.96686C11.7584 3.96686 12.7084 4.1252 12.7084 4.1252V6.18353H11.6584C10.6251 6.18353 10.3001 6.8252 10.3001 7.48353V9.0502H12.6167L12.2417 11.4669H10.3001V17.3002C12.2638 16.9901 14.0519 15.9881 15.3417 14.4752C16.6315 12.9624 17.3379 11.0382 17.3334 9.0502C17.3334 4.44186 13.5834 0.700195 9.00008 0.700195Z" fill="white"/>
</svg>
