<svg width="17" height="18" viewBox="0 0 17 18" fill="none" xmlns="http://www.w3.org/2000/svg">
<path d="M16.2917 8.24984H8.64998V10.5248H14.075C13.8 13.6998 11.1583 15.0582 8.65832 15.0582C5.46665 15.0582 2.66665 12.5415 2.66665 8.99984C2.66665 5.58317 5.33332 2.9415 8.66665 2.9415C11.2417 2.9415 12.75 4.58317 12.75 4.58317L14.3333 2.93317C14.3333 2.93317 12.3 0.666504 8.58332 0.666504C3.84998 0.666504 0.19165 4.6665 0.19165 8.99984C0.19165 13.2082 3.63332 17.3332 8.70832 17.3332C13.1667 17.3332 16.4167 14.2748 16.4167 9.75817C16.4167 8.79984 16.2917 8.24984 16.2917 8.24984Z" fill="white"/>
</svg>
