<svg width="116" height="24" viewBox="0 0 116 24" fill="none" xmlns="http://www.w3.org/2000/svg">
<path d="M18.391 23.2613H13.7311L4.65987 8.16354V23.2613H0V0.315207H4.65987L13.7466 15.4445V0.315207H18.391V23.2613Z" fill="white"/>
<path d="M36.3494 17.2411C36.3494 16.3481 36.0387 15.6651 35.4174 15.1923C34.7961 14.7091 33.6777 14.2047 32.0623 13.6794C30.4469 13.1436 29.168 12.6183 28.2257 12.1034C25.6576 10.6956 24.3735 8.79916 24.3735 6.4142C24.3735 5.17443 24.7152 4.07126 25.3987 3.10466C26.0925 2.12756 27.0814 1.36584 28.3655 0.819504C29.6599 0.273168 31.1096 0 32.7147 0C34.3301 0 35.7695 0.299434 37.0328 0.898303C38.2962 1.48666 39.2748 2.32193 39.9686 3.40409C40.6727 4.48626 41.0248 5.71552 41.0248 7.09186H36.3649C36.3649 6.04122 36.0387 5.22697 35.3864 4.64911C34.734 4.06075 33.8175 3.76657 32.637 3.76657C31.498 3.76657 30.6126 4.01347 29.9809 4.50727C29.3492 4.99057 29.0334 5.63147 29.0334 6.42996C29.0334 7.17592 29.401 7.80105 30.1362 8.30536C30.8818 8.80967 31.9743 9.28246 33.4137 9.72373C36.0646 10.5327 37.9959 11.5361 39.2075 12.7338C40.419 13.9316 41.0248 15.4235 41.0248 17.2096C41.0248 19.1953 40.2844 20.7555 38.8036 21.8902C37.3228 23.0144 35.3294 23.5765 32.8234 23.5765C31.0837 23.5765 29.4994 23.2561 28.0704 22.6152C26.6413 21.9638 25.5488 21.076 24.7929 19.9518C24.0473 18.8276 23.6745 17.5248 23.6745 16.0434H28.3499C28.3499 18.5754 29.8411 19.8415 32.8234 19.8415C33.9314 19.8415 34.7961 19.6156 35.4174 19.1638C36.0387 18.7015 36.3494 18.0606 36.3494 17.2411Z" fill="white"/>
<path d="M55.2936 14.8614H51.5812V23.2613H46.9213V0.315207H55.3246C57.9963 0.315207 60.057 0.919329 61.5067 2.12757C62.9565 3.33582 63.6813 5.04312 63.6813 7.24947C63.6813 8.81494 63.3448 10.123 62.6717 11.1736C62.009 12.2138 60.9993 13.0438 59.6428 13.6637L64.5357 23.0407V23.2613H59.5341L55.2936 14.8614ZM51.5812 11.0318H55.3402C56.5103 11.0318 57.4164 10.7324 58.0584 10.1335C58.7005 9.52412 59.0215 8.68886 59.0215 7.62771C59.0215 6.54554 58.716 5.69452 58.105 5.07464C57.5044 4.45475 56.5776 4.14481 55.3246 4.14481H51.5812V11.0318Z" fill="white"/>
<path d="M87.0576 4.14481H80.1299V23.2613H75.47V4.14481H68.6355V0.315207H87.0576V4.14481Z" fill="white"/>
<path d="M98.1385 0.315207L103.948 16.9574L109.726 0.315207H115.846V23.2613H111.171V16.989L111.637 6.16205L105.532 23.2613H102.332L96.2435 6.17781L96.7095 16.989V23.2613H92.0496V0.315207H98.1385Z" fill="white"/>
</svg>
